/* XPM */
static char * control_xpm[] = {
"16 16 2 1",
" 	c None",
".	c #05FB0B",
".             . ",
"..           .. ",
" ..         ..  ",
"  ..       ..   ",
"   .   ..  .    ",
"     ......     ",
"     ......     ",
"    ........    ",
"    ........    ",
"     ......     ",
"     ......     ",
"    .  ..  .    ",
"   ..      ..   ",
"  ..        ..  ",
"...          ...",
".              ."};
