#define FCF_width 64
#define FCF_height 64
static unsigned char FCF_bits[] = {
   0x00, 0x00, 0x00, 0x00, 0x00, 0x00, 0x00, 0x00, 0x00, 0x00, 0x00, 0x00,
   0x00, 0x00, 0x00, 0x00, 0x00, 0x00, 0x00, 0x00, 0x00, 0x00, 0x00, 0x00,
   0x00, 0x00, 0x00, 0x00, 0x00, 0x00, 0x00, 0x00, 0x00, 0x00, 0x00, 0x00,
   0x00, 0x00, 0x00, 0x00, 0x00, 0x00, 0x00, 0x00, 0x00, 0x00, 0x00, 0x00,
   0x00, 0x00, 0x00, 0x00, 0x00, 0x00, 0x00, 0x00, 0xfc, 0x01, 0x00, 0x80,
   0x01, 0x80, 0x00, 0x00, 0x04, 0x00, 0x00, 0x00, 0x00, 0x80, 0x00, 0x04,
   0x04, 0x00, 0x00, 0x00, 0x00, 0x80, 0x00, 0x04, 0x04, 0xc8, 0xe1, 0xc3,
   0x81, 0x97, 0x1e, 0x3f, 0x7c, 0x30, 0x12, 0x04, 0x41, 0x88, 0x21, 0x04,
   0x04, 0x10, 0x12, 0x04, 0x41, 0x88, 0x20, 0x04, 0x04, 0x10, 0xf0, 0x07,
   0x41, 0x88, 0x20, 0x04, 0x04, 0x10, 0x10, 0x00, 0x81, 0x87, 0x20, 0x04,
   0x04, 0x10, 0x10, 0x00, 0x41, 0x80, 0x20, 0x44, 0x04, 0x10, 0xe0, 0xc3,
   0x87, 0x8f, 0x20, 0x38, 0x00, 0x00, 0x00, 0x00, 0x40, 0x10, 0x00, 0x00,
   0x00, 0x00, 0x00, 0x00, 0x40, 0x10, 0x00, 0x00, 0x00, 0x00, 0x00, 0x00,
   0x80, 0x0f, 0x00, 0x00, 0x00, 0x00, 0x00, 0x00, 0x00, 0x00, 0x00, 0x00,
   0x00, 0x00, 0x00, 0x00, 0x00, 0x00, 0x00, 0x00, 0x00, 0x00, 0xe0, 0x03,
   0x00, 0x00, 0x00, 0x00, 0x00, 0x00, 0x10, 0x04, 0x00, 0x00, 0x00, 0x00,
   0x00, 0x00, 0x10, 0x00, 0x00, 0x00, 0x00, 0x00, 0x00, 0x00, 0x10, 0xc0,
   0x47, 0x0e, 0x00, 0x00, 0x00, 0x00, 0x10, 0x00, 0x88, 0x11, 0x00, 0x00,
   0x00, 0x00, 0x10, 0x00, 0x88, 0x10, 0x00, 0x00, 0x00, 0x00, 0x10, 0xc0,
   0x8f, 0x00, 0x00, 0x00, 0x00, 0x00, 0x10, 0x20, 0x88, 0x00, 0x00, 0x00,
   0x00, 0x00, 0x10, 0x24, 0x8c, 0x00, 0x00, 0x00, 0x00, 0x00, 0xe0, 0xc3,
   0x8b, 0x00, 0x00, 0x00, 0x00, 0x00, 0x00, 0x00, 0x00, 0x00, 0x00, 0x00,
   0x00, 0x00, 0x00, 0x00, 0x00, 0x00, 0x00, 0x00, 0x00, 0x00, 0x00, 0x00,
   0x00, 0x00, 0x00, 0x00, 0x00, 0x00, 0x00, 0x00, 0x00, 0x00, 0x00, 0x00,
   0x00, 0x00, 0x00, 0x00, 0x00, 0x00, 0x00, 0x00, 0x00, 0x00, 0x7f, 0x00,
   0x00, 0xf1, 0x01, 0x00, 0x00, 0x00, 0x01, 0x00, 0x00, 0x09, 0x02, 0x00,
   0x00, 0x00, 0x01, 0x00, 0x00, 0x09, 0x02, 0x00, 0x00, 0x00, 0x01, 0x82,
   0x78, 0x01, 0x01, 0x00, 0x00, 0x00, 0x1f, 0x82, 0x84, 0x81, 0x00, 0x00,
   0x00, 0x00, 0x01, 0x92, 0x04, 0x41, 0x00, 0x00, 0x00, 0x00, 0x01, 0x92,
   0x04, 0x21, 0x00, 0x00, 0x00, 0x00, 0x01, 0x92, 0x04, 0x11, 0x00, 0x00,
   0x00, 0x00, 0x01, 0xaa, 0x84, 0x09, 0x00, 0x00, 0x00, 0x00, 0x01, 0x44,
   0x78, 0xf9, 0x03, 0x00, 0x00, 0x00, 0x00, 0x00, 0x00, 0x00, 0x00, 0x00,
   0x00, 0x00, 0x00, 0x00, 0x00, 0x00, 0x00, 0x00, 0x00, 0x00, 0x00, 0x00,
   0x00, 0x00, 0x00, 0x00, 0x00, 0x00, 0x00, 0x00, 0x00, 0x00, 0x00, 0x00,
   0x00, 0x00, 0x00, 0x00, 0x00, 0x00, 0x00, 0x00, 0x00, 0x00, 0x00, 0x00,
   0x00, 0x00, 0x00, 0x00, 0x00, 0x00, 0x00, 0x00, 0x00, 0x00, 0x00, 0x00,
   0x00, 0x00, 0x00, 0x00, 0x00, 0x00, 0x00, 0x00, 0x00, 0x00, 0x00, 0x00,
   0x00, 0x00, 0x00, 0x00, 0x00, 0x00, 0x00, 0x00, 0x00, 0x00, 0x00, 0x00,
   0x00, 0x00, 0x00, 0x00, 0x00, 0x00, 0x00, 0x00, 0x00, 0x00, 0x00, 0x00,
   0x00, 0x00, 0x00, 0x00, 0x00, 0x00, 0x00, 0x00, 0x00, 0x00, 0x00, 0x00,
   0x00, 0x00, 0x00, 0x00, 0x00, 0x00, 0x00, 0x00, 0x00, 0x00, 0x00, 0x00,
   0x00, 0x00, 0x00, 0x00, 0x00, 0x00, 0x00, 0x00, 0x00, 0x00, 0x00, 0x00,
   0x00, 0x00, 0x00, 0x00, 0x00, 0x00, 0x00, 0x00 };
