#define TimeTable_width 64
#define TimeTable_height 64
static unsigned char TimeTable_bits[] = {
   0x00, 0x00, 0x00, 0x00, 0x00, 0x00, 0x00, 0x00, 0x00, 0x00, 0x00, 0x00,
   0x00, 0x00, 0x00, 0x10, 0x00, 0x00, 0x00, 0x00, 0x00, 0x00, 0x00, 0x0c,
   0x00, 0x00, 0x00, 0x00, 0x00, 0x00, 0x00, 0x02, 0xfe, 0xff, 0xff, 0xff,
   0xff, 0xff, 0xff, 0xff, 0x00, 0x00, 0x00, 0x00, 0x00, 0x00, 0xc0, 0x00,
   0x00, 0x00, 0x00, 0x00, 0x00, 0x00, 0x20, 0x00, 0xfc, 0x01, 0x00, 0x00,
   0x00, 0x00, 0x20, 0x00, 0x20, 0x00, 0x00, 0x00, 0x00, 0x00, 0x10, 0x00,
   0x20, 0x00, 0x00, 0x00, 0x00, 0x00, 0x10, 0x00, 0x20, 0x00, 0x00, 0x00,
   0x00, 0x00, 0x10, 0x00, 0x20, 0x00, 0x00, 0x00, 0x00, 0x00, 0x08, 0x00,
   0x20, 0x02, 0x00, 0x00, 0x00, 0x00, 0x08, 0x00, 0x20, 0x02, 0x00, 0x00,
   0x00, 0x00, 0x08, 0x00, 0x20, 0x00, 0x00, 0x00, 0x00, 0x00, 0x04, 0x00,
   0x20, 0x00, 0x00, 0x00, 0x00, 0x00, 0x04, 0x00, 0x20, 0x12, 0x80, 0x03,
   0x00, 0x00, 0x02, 0x00, 0x20, 0xf2, 0x47, 0x04, 0x00, 0x00, 0x02, 0x00,
   0x20, 0x92, 0x24, 0x08, 0x00, 0x00, 0x02, 0x00, 0x20, 0x92, 0xe4, 0x0f,
   0x00, 0x00, 0x01, 0x00, 0x20, 0x92, 0x24, 0x00, 0x00, 0x00, 0x01, 0x00,
   0x20, 0x92, 0x44, 0x00, 0x00, 0x00, 0x01, 0x00, 0x20, 0x92, 0x84, 0x03,
   0x00, 0x80, 0x00, 0x00, 0x00, 0x00, 0x00, 0x00, 0x00, 0xc0, 0x00, 0x00,
   0x00, 0x00, 0x00, 0x00, 0x00, 0x30, 0x00, 0x00, 0x00, 0x00, 0x00, 0x00,
   0x00, 0x0c, 0x00, 0x00, 0x00, 0x00, 0x00, 0x00, 0x00, 0x03, 0x00, 0x00,
   0x00, 0x00, 0x00, 0x00, 0xc0, 0x00, 0x00, 0x00, 0x00, 0x00, 0x00, 0x00,
   0x30, 0x00, 0x00, 0x00, 0xff, 0xff, 0xff, 0xff, 0xff, 0xff, 0xff, 0xff,
   0x00, 0x00, 0x00, 0x00, 0x03, 0x00, 0x00, 0x00, 0x00, 0x00, 0x00, 0x00,
   0x01, 0x00, 0x00, 0x00, 0xf0, 0x07, 0x00, 0x80, 0x00, 0x00, 0x00, 0x00,
   0x80, 0x00, 0x40, 0x80, 0x04, 0x00, 0x00, 0x00, 0x80, 0x00, 0x40, 0x40,
   0x04, 0x00, 0x00, 0x00, 0x80, 0x00, 0x40, 0x40, 0x04, 0x00, 0x00, 0x00,
   0x80, 0x00, 0x40, 0x20, 0x04, 0x00, 0x00, 0x00, 0x80, 0x00, 0x40, 0x20,
   0x04, 0x00, 0x00, 0x00, 0x80, 0x00, 0x40, 0x10, 0x04, 0x00, 0x00, 0x00,
   0x80, 0x00, 0x40, 0x08, 0x04, 0x00, 0x00, 0x00, 0x80, 0x00, 0x40, 0x08,
   0x04, 0x00, 0x00, 0x00, 0x80, 0xe0, 0x42, 0x04, 0x04, 0x00, 0x00, 0x00,
   0x80, 0x10, 0x43, 0x0e, 0x04, 0x07, 0x00, 0x00, 0x80, 0x08, 0x42, 0x13,
   0x84, 0x08, 0x00, 0x00, 0x80, 0x08, 0xc2, 0x22, 0x44, 0x10, 0x00, 0x00,
   0x80, 0x08, 0xc2, 0x21, 0xc4, 0x1f, 0x00, 0x00, 0x80, 0x10, 0xe3, 0x20,
   0x44, 0x00, 0x00, 0x00, 0x80, 0xe0, 0x5a, 0x11, 0x84, 0x00, 0x00, 0x00,
   0x00, 0x00, 0x47, 0x0e, 0x04, 0x07, 0x00, 0x00, 0x00, 0xc0, 0x00, 0x00,
   0x00, 0x00, 0x00, 0x00, 0x00, 0x30, 0x00, 0x00, 0x00, 0x00, 0x00, 0x00,
   0xff, 0xff, 0xff, 0xff, 0xff, 0xff, 0xff, 0xff, 0x00, 0x01, 0x00, 0x00,
   0x00, 0x00, 0x00, 0x00, 0x00, 0x01, 0x00, 0x00, 0x00, 0x00, 0x00, 0x00,
   0x80, 0x00, 0x00, 0x00, 0x00, 0x00, 0x00, 0x00, 0x40, 0x00, 0x00, 0x00,
   0x00, 0x00, 0x00, 0x00, 0x20, 0x00, 0x00, 0x00, 0x00, 0x00, 0x00, 0x00,
   0x20, 0x00, 0x00, 0x00, 0x00, 0x00, 0x00, 0x00, 0x10, 0x00, 0x00, 0x00,
   0x00, 0x00, 0x00, 0x00, 0x08, 0x00, 0x00, 0x00, 0x00, 0x00, 0x00, 0x00,
   0x04, 0x00, 0x00, 0x00, 0x00, 0x00, 0x00, 0x00, 0x04, 0x00, 0x00, 0x00,
   0x00, 0x00, 0x00, 0x00, 0x02, 0x00, 0x00, 0x00, 0x00, 0x00, 0x00, 0x00,
   0x01, 0x00, 0x00, 0x00, 0x00, 0x00, 0x00, 0x00};
