/* XPM */
static char * block_xpm[] = {
"16 16 5 1",
" 	c None",
".	c #2E3436",
"+	c #00FFFF",
"@	c #25E100",
"#	c #EF2929",
"..   .          ",
"... ...         ",
" .....++  @@@   ",
"  ...+++ @@@@@  ",
" ...+++  @@@@@  ",
"...++++  @@@@@  ",
" .++++++  @@@   ",
"  ++  +++       ",
"       +++   +  ",
"   ###  +++ +++ ",
"  #####  +++++..",
"  #####   +++...",
"  #####  +++... ",
"   ###  +++.... ",
"         +......",
"          .. ..."};
