/* XPM */
static char * switchm_xpm[] = {
"16 16 11 1",
" 	c None",
".	c #EE2828",
"+	c #EF2828",
"@	c #EF2929",
"#	c #ED2828",
"$	c #EE2929",
"%	c #EC2828",
"&	c #E92C2C",
"*	c #D5403F",
"=	c #2E3436",
"-	c #898A83",
"                ",
"   .+@          ",
"   ..@#         ",
"    $@$         ",
"    .@@.        ",
"     @@.        ",
"     .@%.       ",
"      &*.       ",
"       =        ",
"      ===       ",
"     == ==      ",
"    ==   ==     ",
"    ==    =     ",
"   ==     ==    ",
"  ===   - ===   ",
"  ==       ==   "};
