#define Dispatcher_width 64
#define Dispatcher_height 64
static unsigned char Dispatcher_bits[] = {
   0x00, 0x00, 0x00, 0x00, 0x00, 0x00, 0x00, 0x00, 0x00, 0x00, 0x00, 0x00,
   0x00, 0x00, 0x00, 0x00, 0x00, 0x00, 0x00, 0x00, 0x00, 0x00, 0x00, 0x00,
   0x00, 0x00, 0x00, 0x00, 0x00, 0x00, 0x00, 0x00, 0x00, 0x00, 0x00, 0x00,
   0x00, 0x00, 0x00, 0x00, 0x00, 0x00, 0x00, 0x00, 0x00, 0x00, 0x00, 0x00,
   0x00, 0xf0, 0x81, 0xe0, 0xcf, 0x07, 0x00, 0x00, 0x00, 0x08, 0x42, 0x01,
   0x41, 0x08, 0x00, 0x00, 0x00, 0x08, 0x20, 0x02, 0x41, 0x10, 0x00, 0x00,
   0x00, 0x08, 0x10, 0x04, 0x41, 0x10, 0x00, 0x00, 0x00, 0x08, 0x10, 0x04,
   0x41, 0x10, 0x00, 0x00, 0x00, 0x08, 0x10, 0x04, 0x41, 0x10, 0x00, 0x00,
   0x00, 0x08, 0xf0, 0x07, 0x41, 0x10, 0x00, 0x00, 0x00, 0x08, 0x10, 0x04,
   0x41, 0x10, 0x00, 0x00, 0x00, 0x08, 0x12, 0x04, 0x41, 0x08, 0x00, 0x00,
   0x00, 0xf0, 0x11, 0x04, 0xc1, 0x07, 0x00, 0x00, 0x00, 0x00, 0x00, 0x00,
   0x00, 0x00, 0x00, 0x00, 0x00, 0x00, 0x00, 0x00, 0x00, 0x00, 0x00, 0x00,
   0x00, 0x00, 0x00, 0x00, 0x00, 0x00, 0x00, 0x00, 0x00, 0x00, 0x00, 0x00,
   0x00, 0x00, 0x00, 0x00, 0x00, 0x00, 0x00, 0x00, 0x00, 0x00, 0x00, 0x00,
   0x00, 0xf8, 0x01, 0x00, 0x00, 0x00, 0x07, 0x00, 0x00, 0x08, 0x02, 0x00,
   0x00, 0x00, 0x04, 0x00, 0x00, 0x08, 0x02, 0x00, 0x00, 0x00, 0x04, 0x00,
   0x00, 0x08, 0xe2, 0xa3, 0x87, 0x0f, 0x04, 0x00, 0x00, 0xf8, 0x01, 0x64,
   0x48, 0x10, 0x04, 0x00, 0x00, 0x08, 0x00, 0x24, 0x48, 0x10, 0x04, 0x00,
   0x00, 0x08, 0xe0, 0x27, 0xc8, 0x1f, 0x04, 0x00, 0x00, 0x08, 0x10, 0x24,
   0x48, 0x00, 0x04, 0x00, 0x00, 0x08, 0x10, 0x26, 0x48, 0x00, 0x04, 0x00,
   0x00, 0x08, 0xe0, 0x25, 0x88, 0x0f, 0x1f, 0x00, 0x00, 0x00, 0x00, 0x00,
   0x00, 0x00, 0x00, 0x00, 0x00, 0x00, 0x00, 0x00, 0x00, 0x00, 0x00, 0x00,
   0x00, 0x00, 0x00, 0x00, 0x00, 0x00, 0x00, 0x00, 0x00, 0x00, 0x00, 0x00,
   0x00, 0x00, 0x00, 0x00, 0x00, 0x00, 0x00, 0x00, 0x00, 0x00, 0x00, 0x00,
   0x00, 0x08, 0x02, 0x20, 0x00, 0x00, 0x00, 0x00, 0x00, 0x08, 0x02, 0x20,
   0x00, 0x00, 0x00, 0x00, 0x00, 0x18, 0x03, 0x20, 0x00, 0x00, 0x00, 0x00,
   0x00, 0xa8, 0xe2, 0x23, 0x88, 0x8f, 0x1c, 0x00, 0x00, 0xa8, 0x02, 0x24,
   0x46, 0x10, 0x23, 0x00, 0x00, 0x48, 0x02, 0xa4, 0x41, 0x10, 0x21, 0x00,
   0x00, 0x48, 0xe2, 0x67, 0xc0, 0x1f, 0x01, 0x00, 0x00, 0x08, 0x12, 0xa4,
   0x41, 0x00, 0x01, 0x00, 0x00, 0x08, 0x12, 0x26, 0x46, 0x00, 0x01, 0x00,
   0x00, 0x08, 0xe2, 0x25, 0x88, 0x0f, 0x01, 0x00, 0x00, 0x00, 0x00, 0x00,
   0x00, 0x00, 0x00, 0x00, 0x00, 0x00, 0x00, 0x00, 0x00, 0x00, 0x00, 0x00,
   0x00, 0x00, 0x00, 0x00, 0x00, 0x00, 0x00, 0x00, 0x00, 0x00, 0x00, 0x00,
   0x00, 0x00, 0x00, 0x00, 0x00, 0x00, 0x00, 0x00, 0x00, 0x00, 0x00, 0x00,
   0x00, 0x00, 0x00, 0x00, 0x00, 0x00, 0x00, 0x00, 0x00, 0x00, 0x00, 0x00,
   0x00, 0x00, 0x00, 0x00, 0x00, 0x00, 0x00, 0x00, 0x00, 0x00, 0x00, 0x00,
   0x00, 0x00, 0x00, 0x00, 0x00, 0x00, 0x00, 0x00, 0x00, 0x00, 0x00, 0x00,
   0x00, 0x00, 0x00, 0x00, 0x00, 0x00, 0x00, 0x00, 0x00, 0x00, 0x00, 0x00,
   0x00, 0x00, 0x00, 0x00, 0x00, 0x00, 0x00, 0x00, 0x00, 0x00, 0x00, 0x00,
   0x00, 0x00, 0x00, 0x00, 0x00, 0x00, 0x00, 0x00, 0x00, 0x00, 0x00, 0x00,
   0x00, 0x00, 0x00, 0x00, 0x00, 0x00, 0x00, 0x00, 0x00, 0x00, 0x00, 0x00,
   0x00, 0x00, 0x00, 0x00, 0x00, 0x00, 0x00, 0x00, 0x00, 0x00, 0x00, 0x00,
   0x00, 0x00, 0x00, 0x00, 0x00, 0x00, 0x00, 0x00 };
