#define xtc64_width 64
#define xtc64_height 64
static char xtc64_bits[] = {
 0xff,0xff,0xff,0xff,0xff,0xff,0xff,0xff,0x01,0x00,0x00,0x00,0x00,0x00,0x00,
 0x80,0x01,0x00,0x00,0x00,0x00,0x00,0x00,0x80,0x01,0x00,0xfc,0xff,0xff,0xff,
 0x07,0x80,0x81,0x07,0x00,0x00,0x30,0x38,0x18,0x80,0x61,0x38,0xfc,0xff,0x0f,
 0x0c,0x60,0x80,0x11,0xe0,0x00,0x00,0x00,0x02,0x80,0x80,0x09,0x00,0x03,0x00,
 0x00,0x03,0x80,0x80,0x09,0x00,0x1c,0x00,0x00,0x01,0x00,0x81,0x05,0x00,0x60,
 0x00,0x80,0x00,0x00,0x81,0x05,0x00,0x80,0x03,0x40,0x00,0x00,0x82,0x05,0x00,
 0x00,0x0c,0x20,0x00,0x00,0x82,0x05,0x00,0x00,0x30,0x10,0x00,0x00,0x82,0x05,
 0x00,0x00,0xc0,0x09,0x00,0x00,0x82,0x05,0x00,0x00,0x00,0x06,0x00,0x00,0x82,
 0x05,0x00,0x00,0x00,0x3a,0x00,0x00,0x81,0x05,0x00,0x00,0x00,0xc1,0x00,0x00,
 0x81,0x05,0x00,0x00,0x00,0x01,0x03,0x80,0x80,0x05,0x00,0x00,0x80,0x00,0x1c,
 0x80,0x80,0x05,0x00,0x00,0x40,0x00,0x60,0x60,0x80,0x05,0x00,0x00,0x20,0x00,
 0x80,0x1f,0x80,0x05,0x00,0x00,0x10,0x00,0x00,0x00,0x80,0x05,0x00,0x00,0x08,
 0x00,0x00,0x00,0x80,0x05,0x00,0x00,0x04,0x00,0x00,0x00,0x80,0x05,0x00,0x00,
 0x02,0x00,0x00,0x00,0x80,0x05,0x00,0x00,0x01,0x00,0x00,0x00,0x80,0x05,0x00,
 0x00,0x01,0x00,0x00,0x00,0x80,0x05,0x00,0x80,0x00,0x00,0x00,0x00,0x80,0x05,
 0x00,0x40,0x00,0x00,0x00,0x00,0x80,0x05,0xf0,0xff,0xff,0xff,0xff,0x7f,0x80,
 0x05,0x0c,0x10,0x00,0x00,0x00,0xc0,0x80,0xc5,0xff,0xff,0xff,0xff,0xff,0xff,
 0x83,0x35,0x00,0x04,0x00,0x00,0x00,0x00,0x8e,0x0d,0x00,0x02,0x00,0x00,0x00,
 0x00,0x90,0x0d,0x00,0x02,0x00,0x00,0x00,0x00,0xa0,0x05,0x00,0x01,0x00,0x00,
 0x00,0x00,0xc0,0x05,0x80,0x00,0xf0,0xff,0x03,0x00,0xc0,0x05,0x40,0x00,0x30,
 0x00,0x03,0x00,0xc0,0x05,0x20,0x00,0xd0,0xff,0x02,0x00,0xc0,0x09,0x10,0x00,
 0x30,0x00,0x03,0x00,0xc0,0x09,0x10,0x00,0xf0,0xff,0x03,0x00,0xa0,0x31,0x0c,
 0x00,0x00,0x00,0x00,0x00,0x90,0xc1,0xff,0xff,0xff,0xff,0xff,0xff,0x8f,0x01,
 0x00,0x00,0x00,0x00,0x00,0xc0,0x81,0xfd,0xff,0xff,0xff,0xff,0xff,0x3f,0x80,
 0x01,0x3c,0x00,0x00,0x00,0x00,0x07,0x8e,0xfd,0xff,0xff,0xff,0xff,0xff,0x01,
 0x91,0x01,0x00,0x00,0x00,0x00,0x0c,0x80,0xa8,0xfd,0xff,0xff,0xff,0xff,0xff,
 0xff,0xa4,0x01,0x00,0x00,0x00,0x00,0x00,0x80,0xa2,0x01,0x00,0x00,0x00,0x00,
 0x00,0x00,0x91,0x01,0x00,0x00,0x00,0x00,0x00,0x00,0x8e,0xff,0xff,0xff,0xff,
 0xff,0xff,0xff,0xff,0x01,0x00,0x00,0x00,0x00,0x00,0x00,0x80,0x01,0x63,0xff,
 0xc0,0x01,0x0f,0xe0,0x80,0x01,0x66,0x99,0x80,0x81,0x09,0xc0,0x80,0x01,0x36,
 0x18,0x80,0xc1,0x00,0xc0,0x80,0x01,0x1c,0x18,0x9f,0xdd,0xe0,0xf9,0x80,0x01,
 0x1c,0x18,0xa6,0xcd,0x80,0xcd,0x80,0x01,0x36,0x18,0x86,0xc7,0xf0,0xcd,0x80,
 0x01,0x33,0x18,0x86,0x8d,0xb9,0xcd,0x80,0x01,0x63,0x3c,0xcf,0x19,0x6f,0xbb,
 0x81,0x01,0x00,0x00,0x00,0x00,0x00,0x00,0x80,0xff,0xff,0xff,0xff,0xff,0xff,
 0xff,0xff};
