/* XPM */
static char * signal_xpm[] = {
"16 16 6 1",
" 	c None",
".	c #000000",
"+	c #3A000B",
"@	c #C90328",
"#	c #D9032B",
"$	c #F30431",
"        ..      ",
"       ....     ",
"      .+$@+.    ",
"      .#$$#.    ",
"      .+$@+.    ",
"       ....     ",
"        ..      ",
"        ..      ",
"        ..      ",
"        ..      ",
"        ..      ",
"        ..      ",
"        ..      ",
"        ..      ",
"   ............ ",
"   ............ "};
