/* XPM */
static char * sensor_xpm[] = {
"16 16 3 1",
" 	c None",
".	c #07D1F6",
"+	c #FFFFFF",
"                ",
"                ",
"                ",
"                ",
"       ..       ",
"     +....++    ",
"     ++..++     ",
"    ..++++..    ",
"    ...+++..    ",
"    ...+.+..    ",
"     .++.++     ",
"     ++...+     ",
"       ..       ",
"                ",
"                ",
"                "};
